<?xml version="1.0" encoding="UTF-8"?>
<svg xmlns="http://www.w3.org/2000/svg" xmlns:xlink="http://www.w3.org/1999/xlink" viewBox="0 0 750 500">
  <defs>
    <linearGradient id="linear-gradient" x1="0" y1="250" x2="750" y2="250" gradientUnits="userSpaceOnUse">
      <stop offset="0" stop-color="#04074a"/>
      <stop offset="1" stop-color="#2a246d"/>
    </linearGradient>
    <linearGradient id="linear-gradient-2" x1="138.57" y1="114.13" x2="-8.49" y2="17.11" gradientUnits="userSpaceOnUse">
      <stop offset="0" stop-color="#fff"/>
      <stop offset=".89" stop-color="#1d262d" stop-opacity="0"/>
    </linearGradient>
    <linearGradient id="linear-gradient-3" x1="611.56" y1="148.34" x2="759.65" y2="-41.61" xlink:href="#linear-gradient-2"/>
    <linearGradient id="linear-gradient-4" x1="213.12" y1="359.66" x2="74.22" y2="445.44" xlink:href="#linear-gradient-2"/>
    <linearGradient id="linear-gradient-5" x1="576.27" y1="403.59" x2="629.72" y2="465.55" xlink:href="#linear-gradient-2"/>
  </defs>
  <g isolation="isolate">
    <g id="BACKGROUND">
      <g>
        <rect width="750" height="500" fill="url(#linear-gradient)" stroke-width="0"/>
        <g>
          <g opacity=".42">
            <circle cx="463.22" cy="97.75" r="1.18" fill="#fff" stroke-width="0"/>
            <circle cx="326.02" cy="141.15" r="1.18" fill="#fff" stroke-width="0"/>
            <circle cx="481.63" cy="206.06" r="1.18" fill="#fff" stroke-width="0"/>
            <circle cx="516.1" cy="262.17" r="1.18" fill="#fff" stroke-width="0"/>
            <path d="M448.01,181.57c0,.65-.53,1.18-1.18,1.18s-1.18-.53-1.18-1.18.53-1.18,1.18-1.18,1.18.53,1.18,1.18Z" fill="#fff" stroke-width="0"/>
            <circle cx="579.21" cy="171.28" r="1.18" fill="#fff" stroke-width="0"/>
            <path d="M416.88,65.63c0,.65-.53,1.18-1.18,1.18s-1.18-.53-1.18-1.18.53-1.18,1.18-1.18,1.18.53,1.18,1.18Z" fill="#fff" stroke-width="0"/>
            <path d="M341.46,87.46c0,.65-.53,1.18-1.18,1.18s-1.18-.53-1.18-1.18.53-1.18,1.18-1.18,1.18.53,1.18,1.18Z" fill="#fff" stroke-width="0"/>
            <circle cx="302.33" cy="88.44" r="1.18" fill="#fff" stroke-width="0"/>
            <path d="M282.68,154.41c0,.65-.53,1.18-1.18,1.18s-1.18-.53-1.18-1.18.53-1.18,1.18-1.18,1.18.53,1.18,1.18Z" fill="#fff" stroke-width="0"/>
            <circle cx="305.83" cy="190.63" r="1.18" fill="#fff" stroke-width="0"/>
            <path d="M222.31,277.49c0,.65-.53,1.18-1.18,1.18s-1.18-.53-1.18-1.18.53-1.18,1.18-1.18,1.18.53,1.18,1.18Z" fill="#fff" stroke-width="0"/>
            <path d="M230.81,254.6c0,.65-.53,1.18-1.18,1.18s-1.18-.53-1.18-1.18.53-1.18,1.18-1.18,1.18.53,1.18,1.18Z" fill="#fff" stroke-width="0"/>
            <path d="M182.94,383.02c0,.65-.53,1.18-1.18,1.18s-1.18-.53-1.18-1.18.53-1.18,1.18-1.18,1.18.53,1.18,1.18Z" fill="#fff" stroke-width="0"/>
            <path d="M201.75,344.37c0,.65-.53,1.18-1.18,1.18s-1.18-.53-1.18-1.18.53-1.18,1.18-1.18,1.18.53,1.18,1.18Z" fill="#fff" stroke-width="0"/>
            <circle cx="213.98" cy="453.68" r="1.18" fill="#fff" stroke-width="0"/>
            <path d="M172.72,479.07c0,.65-.53,1.18-1.18,1.18s-1.18-.53-1.18-1.18.53-1.18,1.18-1.18,1.18.53,1.18,1.18Z" fill="#fff" stroke-width="0"/>
            <path d="M377.22,467.11c0,.65-.53,1.18-1.18,1.18s-1.18-.53-1.18-1.18.53-1.18,1.18-1.18,1.18.53,1.18,1.18Z" fill="#fff" stroke-width="0"/>
            <path d="M455.6,457.75c0,.65-.53,1.18-1.18,1.18s-1.18-.53-1.18-1.18.53-1.18,1.18-1.18,1.18.53,1.18,1.18Z" fill="#fff" stroke-width="0"/>
            <path d="M473.59,411.63c0,.65-.53,1.18-1.18,1.18s-1.18-.53-1.18-1.18.53-1.18,1.18-1.18,1.18.53,1.18,1.18Z" fill="#fff" stroke-width="0"/>
            <path d="M388.52,400.4c0,.65-.53,1.18-1.18,1.18s-1.18-.53-1.18-1.18.53-1.18,1.18-1.18,1.18.53,1.18,1.18Z" fill="#fff" stroke-width="0"/>
            <path d="M380.91,372.84c0,.65-.53,1.18-1.18,1.18s-1.18-.53-1.18-1.18.53-1.18,1.18-1.18,1.18.53,1.18,1.18Z" fill="#fff" stroke-width="0"/>
            <path d="M362.77,373.81c0,.65-.53,1.18-1.18,1.18s-1.18-.53-1.18-1.18.53-1.18,1.18-1.18,1.18.53,1.18,1.18Z" fill="#fff" stroke-width="0"/>
            <circle cx="583.85" cy="387.89" r="1.18" fill="#fff" stroke-width="0"/>
            <circle cx="534.8" cy="379.49" r="1.18" fill="#fff" stroke-width="0"/>
            <path d="M587.96,341.61c0,.65-.53,1.18-1.18,1.18s-1.18-.53-1.18-1.18.53-1.18,1.18-1.18,1.18.53,1.18,1.18Z" fill="#fff" stroke-width="0"/>
            <circle cx="600.15" cy="285.88" r="1.18" fill="#fff" stroke-width="0"/>
            <circle cx="574.68" cy="267.88" r="1.18" fill="#fff" stroke-width="0"/>
            <circle cx="585.53" cy="217.65" r="1.18" fill="#fff" stroke-width="0"/>
            <circle cx="592.02" cy="217.67" r="1.18" fill="#fff" stroke-width="0"/>
            <circle cx="450.81" cy="127.99" r="1.18" fill="#fff" stroke-width="0"/>
            <circle cx="362.05" cy="165.83" r="1.18" fill="#fff" stroke-width="0"/>
            <circle cx="423.03" cy="179.9" r="1.18" fill="#fff" stroke-width="0"/>
            <path d="M214.86,180.95c0,.65-.53,1.18-1.18,1.18s-1.18-.53-1.18-1.18.53-1.18,1.18-1.18,1.18.53,1.18,1.18Z" fill="#fff" stroke-width="0"/>
            <circle cx="177.8" cy="233.84" r="1.18" fill="#fff" stroke-width="0"/>
            <path d="M164.84,273.59c0,.65-.53,1.18-1.18,1.18s-1.18-.53-1.18-1.18.53-1.18,1.18-1.18,1.18.53,1.18,1.18Z" fill="#fff" stroke-width="0"/>
            <path d="M173.4,156.46c0,.65-.53,1.18-1.18,1.18s-1.18-.53-1.18-1.18.53-1.18,1.18-1.18,1.18.53,1.18,1.18Z" fill="#fff" stroke-width="0"/>
            <path d="M180.11,65.05c0,.65-.53,1.18-1.18,1.18s-1.18-.53-1.18-1.18.53-1.18,1.18-1.18,1.18.53,1.18,1.18Z" fill="#fff" stroke-width="0"/>
            <circle cx="211.1" cy="57.42" r="1.18" fill="#fff" stroke-width="0"/>
            <path d="M364.1,51.51c0,.65-.53,1.18-1.18,1.18s-1.18-.53-1.18-1.18.53-1.18,1.18-1.18,1.18.53,1.18,1.18Z" fill="#fff" stroke-width="0"/>
            <path d="M316.82,63.75c0,.65-.53,1.18-1.18,1.18s-1.18-.53-1.18-1.18.53-1.18,1.18-1.18,1.18.53,1.18,1.18Z" fill="#fff" stroke-width="0"/>
            <circle cx="452.7" cy="49.58" r="1.18" fill="#fff" stroke-width="0"/>
            <path d="M441.51,86.41c0,.65-.53,1.18-1.18,1.18s-1.18-.53-1.18-1.18.53-1.18,1.18-1.18,1.18.53,1.18,1.18Z" fill="#fff" stroke-width="0"/>
            <circle cx="418.49" cy="125.16" r="1.18" fill="#fff" stroke-width="0"/>
            <path d="M338.61,170.58c0,.65-.53,1.18-1.18,1.18s-1.18-.53-1.18-1.18.53-1.18,1.18-1.18,1.18.53,1.18,1.18Z" fill="#fff" stroke-width="0"/>
            <circle cx="310.37" cy="187.27" r="1.18" fill="#fff" stroke-width="0"/>
            <circle cx="269.3" cy="238.57" r="1.18" fill="#fff" stroke-width="0"/>
            <circle cx="261.81" cy="263.28" r="1.18" fill="#fff" stroke-width="0"/>
            <circle cx="269.37" cy="303" r="1.18" fill="#fff" stroke-width="0"/>
            <path d="M282.86,333.24c0,.65-.53,1.18-1.18,1.18s-1.18-.53-1.18-1.18.53-1.18,1.18-1.18,1.18.53,1.18,1.18Z" fill="#fff" stroke-width="0"/>
            <circle cx="346.58" cy="350.95" r="1.18" fill="#fff" stroke-width="0"/>
            <circle cx="397.64" cy="358.52" r="1.18" fill="#fff" stroke-width="0"/>
            <path d="M417.88,363.46c0,.65-.53,1.18-1.18,1.18s-1.18-.53-1.18-1.18.53-1.18,1.18-1.18,1.18.53,1.18,1.18Z" fill="#fff" stroke-width="0"/>
            <circle cx="475.29" cy="345.62" r="1.18" fill="#fff" stroke-width="0"/>
            <path d="M480.19,309.75c0,.65-.53,1.18-1.18,1.18s-1.18-.53-1.18-1.18.53-1.18,1.18-1.18,1.18.53,1.18,1.18Z" fill="#fff" stroke-width="0"/>
            <circle cx="466.39" cy="241.54" r="1.18" fill="#fff" stroke-width="0"/>
            <path d="M451.41,228.18c0,.65-.53,1.18-1.18,1.18s-1.18-.53-1.18-1.18.53-1.18,1.18-1.18,1.18.53,1.18,1.18Z" fill="#fff" stroke-width="0"/>
            <circle cx="450.48" cy="199.73" r="1.18" fill="#fff" stroke-width="0"/>
            <path d="M299.81,210.34c0,.65-.53,1.18-1.18,1.18s-1.18-.53-1.18-1.18.53-1.18,1.18-1.18,1.18.53,1.18,1.18Z" fill="#fff" stroke-width="0"/>
            <path d="M294.24,230.25c0,.65-.53,1.18-1.18,1.18s-1.18-.53-1.18-1.18.53-1.18,1.18-1.18,1.18.53,1.18,1.18Z" fill="#fff" stroke-width="0"/>
            <path d="M295.26,280.28c0,.65-.53,1.18-1.18,1.18s-1.18-.53-1.18-1.18.53-1.18,1.18-1.18,1.18.53,1.18,1.18Z" fill="#fff" stroke-width="0"/>
            <circle cx="436.2" cy="332.29" r="1.18" fill="#fff" stroke-width="0"/>
            <path d="M449.64,318.97c0,.65-.53,1.18-1.18,1.18s-1.18-.53-1.18-1.18.53-1.18,1.18-1.18,1.18.53,1.18,1.18Z" fill="#fff" stroke-width="0"/>
            <circle cx="460.86" cy="310.39" r="1.18" fill="#fff" stroke-width="0"/>
            <path d="M487.73,297.24c0,.65-.53,1.18-1.18,1.18s-1.18-.53-1.18-1.18.53-1.18,1.18-1.18,1.18.53,1.18,1.18Z" fill="#fff" stroke-width="0"/>
            <path d="M503.6,272.69c0,.65-.53,1.18-1.18,1.18s-1.18-.53-1.18-1.18.53-1.18,1.18-1.18,1.18.53,1.18,1.18Z" fill="#fff" stroke-width="0"/>
            <circle cx="508.38" cy="247.9" r="1.18" fill="#fff" stroke-width="0"/>
            <path d="M511.69,233.49c0,.65-.53,1.18-1.18,1.18s-1.18-.53-1.18-1.18.53-1.18,1.18-1.18,1.18.53,1.18,1.18Z" fill="#fff" stroke-width="0"/>
            <path d="M485.74,232.84c0,.65-.53,1.18-1.18,1.18s-1.18-.53-1.18-1.18.53-1.18,1.18-1.18,1.18.53,1.18,1.18Z" fill="#fff" stroke-width="0"/>
            <circle cx="495.84" cy="205.67" r="1.18" fill="#fff" stroke-width="0"/>
            <path d="M500.81,208.23c0,.65-.53,1.18-1.18,1.18s-1.18-.53-1.18-1.18.53-1.18,1.18-1.18,1.18.53,1.18,1.18Z" fill="#fff" stroke-width="0"/>
            <path d="M532.76,262.15c0,.65-.53,1.18-1.18,1.18s-1.18-.53-1.18-1.18.53-1.18,1.18-1.18,1.18.53,1.18,1.18Z" fill="#fff" stroke-width="0"/>
            <circle cx="518.13" cy="287.89" r="1.18" fill="#fff" stroke-width="0"/>
            <path d="M517.25,286.42c0,.65-.53,1.18-1.18,1.18s-1.18-.53-1.18-1.18.53-1.18,1.18-1.18,1.18.53,1.18,1.18Z" fill="#fff" stroke-width="0"/>
            <circle cx="480.97" cy="371.14" r="1.18" fill="#fff" stroke-width="0"/>
          </g>
          <g>
            <circle cx="306.3" cy="130.99" r="1.18" fill="#fff" stroke-width="0"/>
            <path d="M372.73,152.9c0,.65-.53,1.18-1.18,1.18s-1.18-.53-1.18-1.18.53-1.18,1.18-1.18,1.18.53,1.18,1.18Z" fill="#fff" stroke-width="0"/>
            <circle cx="297.82" cy="179.29" r="1.18" fill="#fff" stroke-width="0"/>
            <path d="M310.4,159.4c0,.65-.53,1.18-1.18,1.18s-1.18-.53-1.18-1.18.53-1.18,1.18-1.18,1.18.53,1.18,1.18Z" fill="#fff" stroke-width="0"/>
            <path d="M440.57,189.6c0,.65-.53,1.18-1.18,1.18s-1.18-.53-1.18-1.18.53-1.18,1.18-1.18,1.18.53,1.18,1.18Z" fill="#fff" stroke-width="0"/>
            <circle cx="294.14" cy="217.88" r="1.18" fill="#fff" stroke-width="0"/>
            <path d="M290.65,260.19c0,.65-.53,1.18-1.18,1.18s-1.18-.53-1.18-1.18.53-1.18,1.18-1.18,1.18.53,1.18,1.18Z" fill="#fff" stroke-width="0"/>
            <path d="M457.5,246.22c0,.65-.53,1.18-1.18,1.18s-1.18-.53-1.18-1.18.53-1.18,1.18-1.18,1.18.53,1.18,1.18Z" fill="#fff" stroke-width="0"/>
            <circle cx="468.7" cy="213.13" r="1.18" fill="#fff" stroke-width="0"/>
            <path d="M419.85,154.69c0,.65-.53,1.18-1.18,1.18s-1.18-.53-1.18-1.18.53-1.18,1.18-1.18,1.18.53,1.18,1.18Z" fill="#fff" stroke-width="0"/>
            <circle cx="440.4" cy="120.68" r="1.18" fill="#fff" stroke-width="0"/>
            <circle cx="352.64" cy="107.33" r="1.18" fill="#fff" stroke-width="0"/>
            <path d="M353.81,129.23c0,.65-.53,1.18-1.18,1.18s-1.18-.53-1.18-1.18.53-1.18,1.18-1.18,1.18.53,1.18,1.18Z" fill="#fff" stroke-width="0"/>
            <circle cx="511.99" cy="278.16" r="1.18" fill="#fff" stroke-width="0"/>
            <path d="M494.29,342.22c0,.65-.53,1.18-1.18,1.18s-1.18-.53-1.18-1.18.53-1.18,1.18-1.18,1.18.53,1.18,1.18Z" fill="#fff" stroke-width="0"/>
            <circle cx="495.01" cy="390.34" r="1.18" fill="#fff" stroke-width="0"/>
            <path d="M411.45,430.04c0,.65-.53,1.18-1.18,1.18s-1.18-.53-1.18-1.18.53-1.18,1.18-1.18,1.18.53,1.18,1.18Z" fill="#fff" stroke-width="0"/>
            <circle cx="374.23" cy="434.81" r="1.18" fill="#fff" stroke-width="0"/>
            <circle cx="357.13" cy="403.59" r="1.18" fill="#fff" stroke-width="0"/>
            <circle cx="397.09" cy="397.91" r="1.18" fill="#fff" stroke-width="0"/>
            <path d="M390.73,375.96c0,.65-.53,1.18-1.18,1.18s-1.18-.53-1.18-1.18.53-1.18,1.18-1.18,1.18.53,1.18,1.18Z" fill="#fff" stroke-width="0"/>
            <circle cx="372.25" cy="379.83" r="1.18" fill="#fff" stroke-width="0"/>
            <circle cx="212.1" cy="339.42" r="1.18" fill="#fff" stroke-width="0"/>
            <circle cx="238.58" cy="365.9" r="1.18" fill="#fff" stroke-width="0"/>
            <path d="M319.84,339.42c0,.65-.53,1.18-1.18,1.18s-1.18-.53-1.18-1.18.53-1.18,1.18-1.18,1.18.53,1.18,1.18Z" fill="#fff" stroke-width="0"/>
            <circle cx="287.57" cy="280.19" r="1.18" fill="#fff" stroke-width="0"/>
            <path d="M233.04,278.15c0,.65-.53,1.18-1.18,1.18s-1.18-.53-1.18-1.18.53-1.18,1.18-1.18,1.18.53,1.18,1.18Z" fill="#fff" stroke-width="0"/>
          </g>
          <g>
            <path d="M138.3,47.79c0,.65-.53,1.18-1.18,1.18s-1.18-.53-1.18-1.18.53-1.18,1.18-1.18,1.18.53,1.18,1.18Z" fill="#fff" stroke-width="0"/>
            <path d="M203.56,69.7c0,.65-.53,1.18-1.18,1.18s-1.18-.53-1.18-1.18.53-1.18,1.18-1.18,1.18.53,1.18,1.18Z" fill="#fff" stroke-width="0"/>
            <circle cx="128.65" cy="96.09" r="1.18" fill="#fff" stroke-width="0"/>
            <circle cx="140.05" cy="76.2" r="1.18" fill="#fff" stroke-width="0"/>
            <path d="M271.4,106.4c0,.65-.53,1.18-1.18,1.18s-1.18-.53-1.18-1.18.53-1.18,1.18-1.18,1.18.53,1.18,1.18Z" fill="#fff" stroke-width="0"/>
            <circle cx="124.97" cy="134.68" r="1.18" fill="#fff" stroke-width="0"/>
            <circle cx="120.3" cy="176.99" r="1.18" fill="#fff" stroke-width="0"/>
            <path d="M288.33,163.02c0,.65-.53,1.18-1.18,1.18s-1.18-.53-1.18-1.18.53-1.18,1.18-1.18,1.18.53,1.18,1.18Z" fill="#fff" stroke-width="0"/>
            <path d="M300.7,129.93c0,.65-.53,1.18-1.18,1.18s-1.18-.53-1.18-1.18.53-1.18,1.18-1.18,1.18.53,1.18,1.18Z" fill="#fff" stroke-width="0"/>
            <path d="M250.68,71.5c0,.65-.53,1.18-1.18,1.18s-1.18-.53-1.18-1.18.53-1.18,1.18-1.18,1.18.53,1.18,1.18Z" fill="#fff" stroke-width="0"/>
            <path d="M272.4,37.48c0,.65-.53,1.18-1.18,1.18s-1.18-.53-1.18-1.18.53-1.18,1.18-1.18,1.18.53,1.18,1.18Z" fill="#fff" stroke-width="0"/>
            <path d="M184.64,24.14c0,.65-.53,1.18-1.18,1.18s-1.18-.53-1.18-1.18.53-1.18,1.18-1.18,1.18.53,1.18,1.18Z" fill="#fff" stroke-width="0"/>
            <path d="M184.64,46.04c0,.65-.53,1.18-1.18,1.18s-1.18-.53-1.18-1.18.53-1.18,1.18-1.18,1.18.53,1.18,1.18Z" fill="#fff" stroke-width="0"/>
            <circle cx="342.82" cy="194.97" r="1.18" fill="#fff" stroke-width="0"/>
            <path d="M325.11,259.02c0,.65-.53,1.18-1.18,1.18s-1.18-.53-1.18-1.18.53-1.18,1.18-1.18,1.18.53,1.18,1.18Z" fill="#fff" stroke-width="0"/>
            <path d="M327.01,307.14c0,.65-.53,1.18-1.18,1.18s-1.18-.53-1.18-1.18.53-1.18,1.18-1.18,1.18.53,1.18,1.18Z" fill="#fff" stroke-width="0"/>
            <circle cx="241.1" cy="346.84" r="1.18" fill="#fff" stroke-width="0"/>
            <circle cx="205.06" cy="351.61" r="1.18" fill="#fff" stroke-width="0"/>
            <path d="M189.13,320.4c0,.65-.53,1.18-1.18,1.18s-1.18-.53-1.18-1.18.53-1.18,1.18-1.18,1.18.53,1.18,1.18Z" fill="#fff" stroke-width="0"/>
            <path d="M229.1,314.71c0,.65-.53,1.18-1.18,1.18s-1.18-.53-1.18-1.18.53-1.18,1.18-1.18,1.18.53,1.18,1.18Z" fill="#fff" stroke-width="0"/>
            <path d="M221.55,292.76c0,.65-.53,1.18-1.18,1.18s-1.18-.53-1.18-1.18.53-1.18,1.18-1.18,1.18.53,1.18,1.18Z" fill="#fff" stroke-width="0"/>
            <path d="M204.26,296.63c0,.65-.53,1.18-1.18,1.18s-1.18-.53-1.18-1.18.53-1.18,1.18-1.18,1.18.53,1.18,1.18Z" fill="#fff" stroke-width="0"/>
            <path d="M44.11,256.22c0,.65-.53,1.18-1.18,1.18s-1.18-.53-1.18-1.18.53-1.18,1.18-1.18,1.18.53,1.18,1.18Z" fill="#fff" stroke-width="0"/>
            <circle cx="69.4" cy="282.7" r="1.18" fill="#fff" stroke-width="0"/>
            <path d="M150.66,256.23c0,.65-.53,1.18-1.18,1.18s-1.18-.53-1.18-1.18.53-1.18,1.18-1.18,1.18.53,1.18,1.18Z" fill="#fff" stroke-width="0"/>
            <circle cx="118.4" cy="197" r="1.18" fill="#fff" stroke-width="0"/>
            <path d="M63.87,194.95c0,.65-.53,1.18-1.18,1.18s-1.18-.53-1.18-1.18.53-1.18,1.18-1.18,1.18.53,1.18,1.18Z" fill="#fff" stroke-width="0"/>
          </g>
          <g>
            <path d="M487.48,163.05c0,.65-.53,1.18-1.18,1.18s-1.18-.53-1.18-1.18.53-1.18,1.18-1.18,1.18.53,1.18,1.18Z" fill="#fff" stroke-width="0"/>
            <path d="M552.74,184.96c0,.65-.53,1.18-1.18,1.18s-1.18-.53-1.18-1.18.53-1.18,1.18-1.18,1.18.53,1.18,1.18Z" fill="#fff" stroke-width="0"/>
            <path d="M479,211.35c0,.65-.53,1.18-1.18,1.18s-1.18-.53-1.18-1.18.53-1.18,1.18-1.18,1.18.53,1.18,1.18Z" fill="#fff" stroke-width="0"/>
            <path d="M490.41,191.46c0,.65-.53,1.18-1.18,1.18s-1.18-.53-1.18-1.18.53-1.18,1.18-1.18,1.18.53,1.18,1.18Z" fill="#fff" stroke-width="0"/>
            <circle cx="619.4" cy="221.66" r="1.18" fill="#fff" stroke-width="0"/>
            <path d="M475.33,249.94c0,.65-.53,1.18-1.18,1.18s-1.18-.53-1.18-1.18.53-1.18,1.18-1.18,1.18.53,1.18,1.18Z" fill="#fff" stroke-width="0"/>
            <path d="M470.66,292.25c0,.65-.53,1.18-1.18,1.18s-1.18-.53-1.18-1.18.53-1.18,1.18-1.18,1.18.53,1.18,1.18Z" fill="#fff" stroke-width="0"/>
            <path d="M637.51,278.28c0,.65-.53,1.18-1.18,1.18s-1.18-.53-1.18-1.18.53-1.18,1.18-1.18,1.18.53,1.18,1.18Z" fill="#fff" stroke-width="0"/>
            <circle cx="648.71" cy="245.19" r="1.18" fill="#fff" stroke-width="0"/>
            <circle cx="598.68" cy="186.76" r="1.18" fill="#fff" stroke-width="0"/>
            <circle cx="620.41" cy="152.74" r="1.18" fill="#fff" stroke-width="0"/>
            <path d="M533.83,139.4c0,.65-.53,1.18-1.18,1.18s-1.18-.53-1.18-1.18.53-1.18,1.18-1.18,1.18.53,1.18,1.18Z" fill="#fff" stroke-width="0"/>
            <path d="M533.82,161.3c0,.65-.53,1.18-1.18,1.18s-1.18-.53-1.18-1.18.53-1.18,1.18-1.18,1.18.53,1.18,1.18Z" fill="#fff" stroke-width="0"/>
            <circle cx="692" cy="310.23" r="1.18" fill="#fff" stroke-width="0"/>
            <path d="M674.3,374.28c0,.65-.53,1.18-1.18,1.18s-1.18-.53-1.18-1.18.53-1.18,1.18-1.18,1.18.53,1.18,1.18Z" fill="#fff" stroke-width="0"/>
            <circle cx="675.02" cy="422.4" r="1.18" fill="#fff" stroke-width="0"/>
            <path d="M591.46,462.1c0,.65-.53,1.18-1.18,1.18s-1.18-.53-1.18-1.18.53-1.18,1.18-1.18,1.18.53,1.18,1.18Z" fill="#fff" stroke-width="0"/>
            <path d="M555.42,466.87c0,.65-.53,1.18-1.18,1.18s-1.18-.53-1.18-1.18.53-1.18,1.18-1.18,1.18.53,1.18,1.18Z" fill="#fff" stroke-width="0"/>
            <circle cx="537.14" cy="435.66" r="1.18" fill="#fff" stroke-width="0"/>
            <circle cx="577.1" cy="429.97" r="1.18" fill="#fff" stroke-width="0"/>
            <path d="M570.74,408.02c0,.65-.53,1.18-1.18,1.18s-1.18-.53-1.18-1.18.53-1.18,1.18-1.18,1.18.53,1.18,1.18Z" fill="#fff" stroke-width="0"/>
            <circle cx="552.27" cy="411.89" r="1.18" fill="#fff" stroke-width="0"/>
            <circle cx="392.11" cy="371.48" r="1.18" fill="#fff" stroke-width="0"/>
            <path d="M419.76,397.96c0,.65-.53,1.18-1.18,1.18s-1.18-.53-1.18-1.18.53-1.18,1.18-1.18,1.18.53,1.18,1.18Z" fill="#fff" stroke-width="0"/>
            <path d="M499.85,371.48c0,.65-.53,1.18-1.18,1.18s-1.18-.53-1.18-1.18.53-1.18,1.18-1.18,1.18.53,1.18,1.18Z" fill="#fff" stroke-width="0"/>
            <circle cx="467.58" cy="312.26" r="1.18" fill="#fff" stroke-width="0"/>
            <path d="M413.05,310.21c0,.65-.53,1.18-1.18,1.18s-1.18-.53-1.18-1.18.53-1.18,1.18-1.18,1.18.53,1.18,1.18Z" fill="#fff" stroke-width="0"/>
          </g>
          <g>
            <path d="M319.71,176.82c0,.65-.53,1.18-1.18,1.18s-1.18-.53-1.18-1.18.53-1.18,1.18-1.18,1.18.53,1.18,1.18Z" fill="#fff" stroke-width="0"/>
            <path d="M344.54,154.78c0,.65-.53,1.18-1.18,1.18s-1.18-.53-1.18-1.18.53-1.18,1.18-1.18,1.18.53,1.18,1.18Z" fill="#fff" stroke-width="0"/>
            <circle cx="326.33" cy="168.02" r="1.18" fill="#fff" stroke-width="0"/>
            <path d="M384.08,147.25c0,.65-.53,1.18-1.18,1.18s-1.18-.53-1.18-1.18.53-1.18,1.18-1.18,1.18.53,1.18,1.18Z" fill="#fff" stroke-width="0"/>
            <path d="M409.55,169.06c0,.65-.53,1.18-1.18,1.18s-1.18-.53-1.18-1.18.53-1.18,1.18-1.18,1.18.53,1.18,1.18Z" fill="#fff" stroke-width="0"/>
            <path d="M316.1,117.97c0,.65-.53,1.18-1.18,1.18s-1.18-.53-1.18-1.18.53-1.18,1.18-1.18,1.18.53,1.18,1.18Z" fill="#fff" stroke-width="0"/>
            <circle cx="260.23" cy="163.36" r="1.18" fill="#fff" stroke-width="0"/>
            <path d="M482.78,431.6c0,.65-.53,1.18-1.18,1.18s-1.18-.53-1.18-1.18.53-1.18,1.18-1.18,1.18.53,1.18,1.18Z" fill="#fff" stroke-width="0"/>
          </g>
        </g>
        <g>
          <circle cx="105.18" cy="92.1" r="60.26" fill="url(#linear-gradient-2)" mix-blend-mode="overlay" opacity=".5" stroke-width="0"/>
          <path d="M750.73,0v197.48c-13.38,3.54-27.44,5.42-41.94,5.42-90.44,0-163.76-73.32-163.76-163.76,0-13.49,1.63-26.6,4.71-39.14h200.99Z" fill="url(#linear-gradient-3)" mix-blend-mode="overlay" opacity=".5" stroke-width="0"/>
          <circle cx="159.19" cy="392.97" r="70.11" fill="url(#linear-gradient-4)" mix-blend-mode="overlay" opacity=".5" stroke-width="0"/>
          <circle cx="588.73" cy="418.03" r="35.29" fill="url(#linear-gradient-5)" mix-blend-mode="overlay" opacity=".5" stroke-width="0"/>
        </g>
      </g>
    </g>
  </g>
</svg>